<svg width="400" height="500" viewBox="0 0 400 500" xmlns="http://www.w3.org/2000/svg" id="sp_root" class="stylepreview">
    <defs>
    <style>
        text, tspan {
            font-family: var(--sp_font);
        }
    </style>
    </defs>
    <path stroke-width="5" d="M 140 100 L 140 475 L 50 475 A 25 25 90 0 1 25 450 L 25 100 Z" stroke="black" fill="var(--sp_bg-secondary)"/>
    <path stroke-width="5" d="M 50 25 L 350 25 A 25 25 90 0 1 375 50 L 375 100 L 25 100 L 25 50 A 25 25 90 0 1 50 25" stroke="black" fill="var(--sp_bg-primary)"/>
    <path stroke-width="5" d="M 140 100 L 375 100 L 375 450 A 25 25 90 0 1 350 475 L 140 475 Z" stroke="black" fill="var(--sp_bg-secondary)"/>
    <line stroke-width="5" stroke-linecap="square" x1="30" y1="100" x2="370" y2="100" stroke="var(--sp_color-progress-bar)"/>

    <rect rx="15" x="155" y="120" width="205" height="75"  storke-width="0" fill="var(--sp_class-lesson-bg)"/>
    <rect rx="10" x="165" y="135" width="185" height="40"  storke-width="0" fill="var(--sp_class-cancelled)"/>
    <rect rx="15" height="150" width="205" x="155" y="210" storke-width="0" fill="var(--sp_class-lesson-bg)"/>
    <rect rx="10" x="165" y="287" width="185" height="40"  storke-width="0" fill="var(--sp_class-special)"/>
    <rect rx="15" height="75"  width="205" x="155" y="375" storke-width="0" fill="var(--sp_class-no-lesson-bg)"/>
    <text fill="var(--sp_color-secondary)" class="cl" x="255" y="165">
        <tspan style="font-weight: bold;">$LES1S$</tspan>
        <tspan style="text-decoration: line-through;">$LES1T$</tspan>
    </text>
    <text fill="var(--sp_color-secondary)" class="cl" x="255" y="275" >
        <tspan style="font-weight: bold;">$LES2S$</tspan>
        <tspan>$LES2T$</tspan>
    </text>
    <text fill="var(--sp_color-secondary)" class="cl" x="255" y="315" >
        <tspan style="font-weight: bold;">Spezial</tspan>
    </text>
    
    <rect x="40" y="115" width="85" height="30" fill="#cfcfcf"/>

    <line stroke-linecap="round" x1="50" y1="130" x2="115" y2="130" stroke-width="10" stroke="#000"/>
    <line stroke-linecap="round" x1="50" y1="170" x2="115" y2="170" stroke-width="10" stroke="var(--sp_link-color)"/>
    <line stroke-linecap="round" x1="50" y1="210" x2="115" y2="210" stroke-width="10" stroke="var(--sp_link-color)"/>
    <line stroke-linecap="round" x1="175" y1="65" x2="225" y2="65" stroke-width="10" stroke="var(--sp_color-primary)"/>
</svg>