<svg width="30" height="30" xmlns="http://www.w3.org/2000/svg" stroke-width="2" fill="#fff">
    <path stroke="none" d="m14.4 19.6h-5.68v5.68h-2.34v-5.68h-5.68v-2.26h5.68v-5.68h2.34v5.68h5.68z"/>
    <path stroke="none" d="m28.8 13q0 1.4-.493 2.59-.479 1.18-1.35 2.06-1.09 1.09-2.57 1.64-1.48.536-3.74.536h-2.79v7.82h-2.79v-21h5.69q1.89 0 3.2.324 1.31.31 2.33.987 1.2.803 1.85 2 .662 1.2.662 3.03zm-2.9.0705q0-1.09-.381-1.89-.381-.803-1.16-1.31-.677-.437-1.55-.62-.86-.197-2.18-.197h-2.76v8.39h2.35q1.69 0 2.75-.296 1.06-.31 1.72-.973.662-.677.93-1.42.282-.747.282-1.68z"/>
</svg>