<svg width="30" height="30" xmlns="http://www.w3.org/2000/svg">
    <path stroke="#fff" fill="none" d="m18 15.9c-.445-.0185-1.33-1.23-1.75-1.38s-1.86.284-2.23.0274c-.364-.256-.451-1.76-.728-2.1-.277-.348-1.72-.768-1.89-1.18-.168-.413.571-1.72.526-2.16-.045-.443-1.03-1.58-.95-2.01.0816-.438 1.41-1.14 1.61-1.54.202-.397-.0157-1.88.29-2.21.305-.324 1.8-.196 2.19-.421.384-.225 1.01-1.59 1.44-1.7s1.62.81 2.07.828c.445.0185 1.71-.797 2.13-.654.422.143.927 1.56 1.29 1.81.364.256 1.87.253 2.14.601.277.348-.0626 1.81.105 2.22.168.413 1.43 1.22 1.48 1.67.045.443-1.03 1.49-1.11 1.93-.0817.438.546 1.8.344 2.2-.202.397-1.67.696-1.98 1.02-.305.324-.516 1.81-.9 2.04-.384.225-1.78-.32-2.22-.212-.432.108-1.41 1.25-1.86 1.23z"/>
    <path stroke="#fff" fill="none" d="m6.27 13.9h4.75"/>
    <path stroke="#fff" fill="none" d="m20.9 8.57a2.64 2.64 0 01-2.64 2.64 2.64 2.64 0 01-2.64-2.64 2.64 2.64 0 012.64-2.64 2.64 2.64 0 012.64 2.64z"/>
    <path stroke="#fff" fill="none" d="m23 13.5 3.55 6.21-3.33-.101-1.41 2.73-1.9-7.1"/>
    <path stroke="#fff" fill="none" d="m13.5 14.2-4.04 6.47 3.64-.505 1.92 2.32 1.87-6.98"/>
    <path stroke="#fff" fill="none" d="m11 7.5h-7v20.5h14.4v-12"/>
</svg>